<svg id="Warstwa_1" data-name="Warstwa 1" xmlns="http://www.w3.org/2000/svg" viewBox="0 0 570.52 234"><defs><style>.cls-1{fill:#1d1d1b;}</style></defs><circle class="cls-1" cx="16.04" cy="16.04" r="16.04"/><circle class="cls-1" cx="83.35" cy="16.04" r="16.04"/><circle class="cls-1" cx="16.04" cy="83.35" r="16.04"/><circle class="cls-1" cx="83.35" cy="83.35" r="16.04"/><circle class="cls-1" cx="83.35" cy="150.65" r="16.04"/><circle class="cls-1" cx="150.65" cy="16.04" r="16.04"/><circle class="cls-1" cx="16.04" cy="150.65" r="16.04"/><circle class="cls-1" cx="150.65" cy="83.35" r="16.04"/><circle class="cls-1" cx="83.35" cy="217.96" r="16.04"/><circle class="cls-1" cx="16.04" cy="217.96" r="16.04"/><circle class="cls-1" cx="150.65" cy="150.65" r="16.04"/><circle class="cls-1" cx="150.65" cy="217.96" r="16.04"/><circle class="cls-1" cx="217.96" cy="16.04" r="16.04"/><circle class="cls-1" cx="217.96" cy="83.35" r="16.04"/><circle class="cls-1" cx="217.96" cy="150.65" r="16.04"/><circle class="cls-1" cx="285.26" cy="16.04" r="16.04"/><circle class="cls-1" cx="285.26" cy="83.35" r="16.04"/><circle class="cls-1" cx="217.96" cy="217.96" r="16.04"/><circle class="cls-1" cx="285.26" cy="150.65" r="16.04"/><circle class="cls-1" cx="285.26" cy="217.96" r="16.04"/><circle class="cls-1" cx="352.57" cy="16.04" r="16.04"/><circle class="cls-1" cx="352.57" cy="83.35" r="16.04"/><circle class="cls-1" cx="352.57" cy="150.65" r="16.04"/><circle class="cls-1" cx="419.87" cy="16.04" r="16.04"/><circle class="cls-1" cx="419.87" cy="83.35" r="16.04"/><circle class="cls-1" cx="352.57" cy="217.96" r="16.04"/><circle class="cls-1" cx="419.87" cy="150.65" r="16.04"/><circle class="cls-1" cx="419.87" cy="217.96" r="16.04"/><circle class="cls-1" cx="487.17" cy="16.04" r="16.04"/><circle class="cls-1" cx="487.17" cy="83.35" r="16.04"/><circle class="cls-1" cx="487.17" cy="150.65" r="16.04"/><circle class="cls-1" cx="554.48" cy="16.04" r="16.04"/><circle class="cls-1" cx="554.48" cy="83.35" r="16.04"/><circle class="cls-1" cx="487.17" cy="217.96" r="16.04"/><circle class="cls-1" cx="554.48" cy="150.65" r="16.04"/><circle class="cls-1" cx="554.48" cy="217.96" r="16.04"/></svg>