<svg id="Warstwa_1" data-name="Warstwa 1" xmlns="http://www.w3.org/2000/svg" viewBox="0 0 570.52 104.85"><defs><style>.cls-1{fill:#f1f1f1;}</style></defs><circle class="cls-1" cx="10.09" cy="10.09" r="10.09"/><circle class="cls-1" cx="52.43" cy="10.09" r="10.09"/><circle class="cls-1" cx="10.09" cy="52.43" r="10.09"/><circle class="cls-1" cx="52.43" cy="52.43" r="10.09"/><circle class="cls-1" cx="52.43" cy="94.76" r="10.09"/><circle class="cls-1" cx="94.76" cy="10.09" r="10.09"/><circle class="cls-1" cx="10.09" cy="94.76" r="10.09"/><circle class="cls-1" cx="94.76" cy="52.43" r="10.09"/><circle class="cls-1" cx="94.76" cy="94.76" r="10.09"/><circle class="cls-1" cx="137.1" cy="10.09" r="10.09"/><circle class="cls-1" cx="137.1" cy="52.43" r="10.09"/><circle class="cls-1" cx="137.1" cy="94.76" r="10.09"/><circle class="cls-1" cx="179.43" cy="10.09" r="10.09"/><circle class="cls-1" cx="179.43" cy="52.43" r="10.09"/><circle class="cls-1" cx="179.43" cy="94.76" r="10.09"/><circle class="cls-1" cx="221.77" cy="10.09" r="10.09"/><circle class="cls-1" cx="221.77" cy="52.43" r="10.09"/><circle class="cls-1" cx="221.77" cy="94.76" r="10.09"/><circle class="cls-1" cx="264.1" cy="10.09" r="10.09"/><circle class="cls-1" cx="264.1" cy="52.43" r="10.09"/><circle class="cls-1" cx="264.1" cy="94.76" r="10.09"/><circle class="cls-1" cx="306.43" cy="10.09" r="10.09"/><circle class="cls-1" cx="306.43" cy="52.43" r="10.09"/><circle class="cls-1" cx="306.43" cy="94.76" r="10.09"/><circle class="cls-1" cx="348.77" cy="10.09" r="10.09"/><circle class="cls-1" cx="348.77" cy="52.43" r="10.09"/><circle class="cls-1" cx="348.77" cy="94.76" r="10.09"/><circle class="cls-1" cx="348.76" cy="10.09" r="10.09"/><circle class="cls-1" cx="348.76" cy="52.43" r="10.09"/><circle class="cls-1" cx="348.76" cy="94.76" r="10.09"/><circle class="cls-1" cx="391.09" cy="10.09" r="10.09"/><circle class="cls-1" cx="391.09" cy="52.43" r="10.09"/><circle class="cls-1" cx="391.09" cy="94.76" r="10.09"/><circle class="cls-1" cx="433.43" cy="10.09" r="10.09"/><circle class="cls-1" cx="433.43" cy="52.43" r="10.09"/><circle class="cls-1" cx="433.43" cy="94.76" r="10.09"/><circle class="cls-1" cx="475.76" cy="10.09" r="10.09"/><circle class="cls-1" cx="475.76" cy="52.43" r="10.09"/><circle class="cls-1" cx="475.76" cy="94.76" r="10.09"/><circle class="cls-1" cx="518.09" cy="10.09" r="10.09"/><circle class="cls-1" cx="518.09" cy="52.43" r="10.09"/><circle class="cls-1" cx="518.09" cy="94.76" r="10.09"/><circle class="cls-1" cx="560.43" cy="10.09" r="10.09"/><circle class="cls-1" cx="560.43" cy="52.43" r="10.09"/><circle class="cls-1" cx="560.43" cy="94.76" r="10.09"/></svg>